<?xml version="1.0" encoding="UTF-8" standalone="no"?>
<svg
   xmlns:dc="http://purl.org/dc/elements/1.1/"
   xmlns:cc="http://creativecommons.org/ns#"
   xmlns:rdf="http://www.w3.org/1999/02/22-rdf-syntax-ns#"
   xmlns:svg="http://www.w3.org/2000/svg"
   xmlns="http://www.w3.org/2000/svg"
   viewBox="130 130 504.4787 353.10669"
   height="613.10669"
   width="764.4787"
   xml:space="preserve"
   id="svg2"
   version="1.1"><metadata
     id="metadata8"><rdf:RDF><cc:Work
         rdf:about=""><dc:format>image/svg+xml</dc:format><dc:type
           rdf:resource="http://purl.org/dc/dcmitype/StillImage" /></cc:Work></rdf:RDF></metadata><defs
     id="defs6"><clipPath
       id="clipPath58"
       clipPathUnits="userSpaceOnUse"><path
         id="path56"
         d="M 0,459.83 H 573.359 V 0 H 0 Z" /></clipPath><clipPath
       id="clipPath74"
       clipPathUnits="userSpaceOnUse"><path
         id="path72"
         d="M 0,459.83 H 573.359 V 0 H 0 Z" /></clipPath><clipPath
       id="clipPath118"
       clipPathUnits="userSpaceOnUse"><path
         id="path116"
         d="M 0,459.83 H 573.359 V 0 H 0 Z" /></clipPath><clipPath
       id="clipPath130"
       clipPathUnits="userSpaceOnUse"><path
         id="path128"
         d="M 0,459.83 H 573.359 V 0 H 0 Z" /></clipPath></defs><g
     transform="matrix(1.3333333,0,0,-1.3333333,0,613.10667)"
     id="g10"><g
       transform="translate(471.2706,193.42)"
       id="g12"><path
         id="path14"
         style="fill:#1d1d1b;fill-opacity:1;fill-rule:nonzero;stroke:none"
         d="M 0,0 V -11.929 H -3.079 V -33.811 H 0 v -12.154 h -19.447 v 12.154 h 3.086 v 21.882 h -3.086 V 0 Z" /></g><g
       transform="translate(447.8438,193.42)"
       id="g16"><path
         id="path18"
         style="fill:#1d1d1b;fill-opacity:1;fill-rule:nonzero;stroke:none"
         d="m 0,0 v 0 -11.929 h -4.404 l -10.398,-34.036 h -11.033 l -10.834,34.036 h -4.652 V 0 h 19.234 v -11.929 h -1.997 l 3.549,-11.73 3.523,11.73 h -2.202 V 0 Z" /></g><g
       transform="translate(394.3819,193.42)"
       id="g20"><path
         id="path22"
         style="fill:#1d1d1b;fill-opacity:1;fill-rule:nonzero;stroke:none"
         d="M 0,0 V 0 -11.929 H -3.537 V -33.811 H 1.32 v 7.291 h 11.936 v -19.445 h -33.147 v 12.154 h 3.098 v 21.882 h -3.098 V 0 Z" /></g><g
       transform="translate(368.5265,193.42)"
       id="g24"><path
         id="path26"
         style="fill:#1d1d1b;fill-opacity:1;fill-rule:nonzero;stroke:none"
         d="m 0,0 v 0 -14.808 h -11.936 v 2.879 h -5.738 v -4.87 H -7.065 V -28.51 h -10.609 v -5.301 h 5.738 v 3.099 H 0 v -15.253 h -34.028 v 12.154 h 3.104 v 21.882 h -3.104 V 0 Z" /></g><g
       transform="translate(328.546,171.1006)"
       id="g28"><path
         id="path30"
         style="fill:#1d1d1b;fill-opacity:1;fill-rule:nonzero;stroke:none"
         d="m 0,0 v 0 -15.697 l -7.968,-7.948 H -24.09 l -7.299,7.728 v 8.406 h 12.813 v -3.979 h 5.3 v 6.407 h -12.585 l -5.965,6.397 v 13.277 l 7.736,7.727 h 16.567 l 7.084,-7.297 v -7.51 h -12.386 v 2.879 h -5.751 V 5.965 h 12.824 z" /></g><g
       transform="translate(291.8634,171.1006)"
       id="g32"><path
         id="path34"
         style="fill:#1d1d1b;fill-opacity:1;fill-rule:nonzero;stroke:none"
         d="m 0,0 v 0 -15.697 l -7.955,-7.948 h -15.903 l -7.524,7.728 v 8.406 h 12.818 v -3.979 h 5.52 v 6.407 h -12.817 l -5.733,6.397 v 13.277 l 7.736,7.727 h 16.336 l 7.078,-7.297 v -7.51 h -12.381 v 2.879 h -5.739 V 5.965 h 12.811 z" /></g><g
       transform="translate(252.9776,159.6094)"
       id="g36"><path
         id="path38"
         style="fill:#1d1d1b;fill-opacity:1;fill-rule:nonzero;stroke:none"
         d="M 0,0 -9.946,33.811 H -22.552 L -33.372,0 h -3.756 v -12.154 h 18.119 v 11.498 h -2.872 l 0.895,2.647 h 8.606 l 0.662,-2.647 H -14.59 V -12.154 H 4.199 L 4.199,0 Z m -18.131,11.718 1.552,4.849 1.327,-4.849 z" /></g><g
       transform="translate(211.6568,193.42)"
       id="g40"><path
         id="path42"
         style="fill:#1d1d1b;fill-opacity:1;fill-rule:nonzero;stroke:none"
         d="M 0,0 V 0 -11.929 H -3.104 V -33.811 H 0 v -12.154 h -19.226 v 12.154 h 2.878 v 21.882 h -2.878 V 0 Z" /></g><g
       transform="translate(186.2394,193.42)"
       id="g44"><path
         id="path46"
         style="fill:#1d1d1b;fill-opacity:1;fill-rule:nonzero;stroke:none"
         d="m 0,0 v 0 -11.929 h -3.098 v -34.036 h -11.484 l -12.148,22.988 v -11.27 h 3.534 v -11.718 h -17.905 v 12.154 h 3.098 v 21.882 h -3.098 V 0 h 16.136 l 10.828,-20.555 v 9.071 h -3.312 V 0 Z" /></g><g
       transform="translate(139.3927,193.42)"
       id="g48"><path
         id="path50"
         style="fill:#1d1d1b;fill-opacity:1;fill-rule:nonzero;stroke:none"
         d="m 0,0 v 0 -11.929 h -3.531 v -26.087 l -7.736,-7.949 h -16.347 l -7.716,7.949 v 26.087 h -3.555 V 0 h 18.562 v -11.484 h -1.763 v -22.327 h 5.3 v 22.327 h -1.547 V 0 Z" /></g><g
       id="g52"><g
         clip-path="url(#clipPath58)"
         id="g54"><g
           transform="translate(471.4815,362.1636)"
           id="g60"><path
             id="path62"
             style="fill:#1d1d1b;fill-opacity:1;fill-rule:nonzero;stroke:none"
             d="m 0,0 -0.226,-25.849 c -72.238,26.741 -149.572,-2.872 -185.159,-68.722 -42.416,58.989 -133.019,66.059 -185.817,18.339 v 28.276 c 54.126,36.238 129.255,34.262 181.392,-9.944 C -140.536,3.765 -67.841,20.106 0,0" /></g><g
           transform="translate(471.4815,319.3037)"
           id="g64"><path
             id="path66"
             style="fill:#1d1d1b;fill-opacity:1;fill-rule:nonzero;stroke:none"
             d="m 0,0 -0.226,-23.864 c -65.829,33.365 -152.67,-0.225 -164.607,-85.07 h -31.319 c -19.312,60.995 -77.86,80.778 -125.929,62.003 -19.235,-7.512 -36.008,-20.526 -49.121,-39.635 v 32.319 c 51.403,57.028 154.887,46.499 188.689,-29.496 C -154.017,-0.451 -71.369,29.388 0,0" /></g></g></g><g
       id="g68"><g
         clip-path="url(#clipPath74)"
         id="g70"><g
           transform="translate(157.5255,116.9639)"
           id="g76"><path
             id="path78"
             style="fill:#1d1d1b;fill-opacity:1;fill-rule:nonzero;stroke:none"
             d="m 0,0 c -0.094,-0.058 -0.223,-0.088 -0.387,-0.088 h -0.105 c -0.842,0.047 -1.896,0.106 -3.16,0.177 -1.264,0.069 -2.645,0.104 -4.142,0.104 -0.703,0 -1.341,-0.093 -1.914,-0.281 -0.574,-0.186 -1.06,-0.509 -1.458,-0.965 -0.397,-0.456 -0.702,-1.071 -0.912,-1.843 -0.211,-0.772 -0.317,-1.733 -0.317,-2.879 v -4.389 c 0,-1.218 0.124,-2.212 0.369,-2.985 0.246,-0.772 0.562,-1.381 0.948,-1.825 0.387,-0.445 0.813,-0.75 1.282,-0.914 0.468,-0.163 0.913,-0.245 1.334,-0.245 0.96,0 1.861,0.035 2.704,0.106 v 8.075 c 0,0.187 0.064,0.35 0.193,0.492 0.128,0.14 0.286,0.21 0.474,0.21 h 4.494 c 0.187,0 0.351,-0.07 0.492,-0.21 0.14,-0.142 0.21,-0.305 0.21,-0.492 v -11.797 c 0,-0.445 -0.234,-0.715 -0.702,-0.808 -0.96,-0.187 -2.071,-0.357 -3.336,-0.509 -1.264,-0.153 -2.774,-0.229 -4.529,-0.229 -0.656,0 -1.364,0.071 -2.124,0.211 -0.761,0.141 -1.51,0.374 -2.247,0.702 -0.738,0.328 -1.446,0.773 -2.125,1.335 -0.678,0.562 -1.281,1.252 -1.808,2.071 -0.526,0.819 -0.942,1.796 -1.246,2.932 -0.304,1.135 -0.456,2.44 -0.456,3.915 v 4.354 c 0,2.247 0.316,4.089 0.947,5.53 0.633,1.439 1.458,2.58 2.476,3.424 1.018,0.842 2.165,1.426 3.441,1.755 1.275,0.328 2.545,0.491 3.81,0.491 1.754,0 3.252,-0.1 4.493,-0.298 1.24,-0.199 2.189,-0.369 2.844,-0.51 C -0.059,4.548 0.14,4.371 0.14,4.091 V 0.369 C 0.14,0.182 0.093,0.059 0,0" /></g><g
           transform="translate(174.5533,114.1729)"
           id="g80"><path
             id="path82"
             style="fill:#1d1d1b;fill-opacity:1;fill-rule:nonzero;stroke:none"
             d="M 0,0 C 0,1.076 -0.396,1.866 -1.188,2.37 -1.98,2.873 -3.11,3.125 -4.577,3.125 -4.694,3.125 -4.886,3.119 -5.154,3.107 -5.422,3.096 -5.696,3.084 -5.976,3.072 -6.255,3.061 -6.523,3.049 -6.779,3.037 -7.035,3.025 -7.21,3.02 -7.303,3.02 v -6.742 c 0.093,0 0.257,-0.006 0.49,-0.017 0.232,-0.012 0.482,-0.024 0.751,-0.035 0.268,-0.012 0.518,-0.018 0.75,-0.018 h 0.49 c 0.908,0 1.671,0.064 2.289,0.193 0.617,0.129 1.112,0.322 1.485,0.579 0.373,0.257 0.64,0.597 0.803,1.019 C -0.082,-1.58 0,-1.065 0,-0.457 Z m 6.882,-17.766 c 0,-0.281 -0.175,-0.421 -0.527,-0.421 H 0.953 c -0.189,0 -0.33,0.07 -0.425,0.21 -0.094,0.141 -0.188,0.304 -0.282,0.492 l -4.683,8.882 -0.385,-0.035 c -0.372,0 -0.798,0.012 -1.275,0.035 -0.478,0.024 -0.88,0.036 -1.206,0.036 v -8.918 c 0,-0.188 -0.071,-0.351 -0.212,-0.492 -0.142,-0.14 -0.306,-0.21 -0.495,-0.21 h -4.591 c -0.188,0 -0.353,0.07 -0.494,0.21 -0.142,0.141 -0.212,0.304 -0.212,0.492 V 6.074 c 0,0.609 0.129,1.018 0.387,1.23 0.258,0.21 0.657,0.362 1.196,0.456 0.398,0.069 0.879,0.128 1.442,0.176 0.563,0.046 1.161,0.092 1.794,0.139 0.634,0.047 1.284,0.082 1.952,0.106 0.668,0.023 1.32,0.035 1.953,0.035 1.5,0 2.895,-0.135 4.185,-0.404 C 0.892,7.543 2.011,7.087 2.962,6.443 3.911,5.799 4.656,4.951 5.195,3.897 5.734,2.845 6.004,1.545 6.004,0 V -0.457 C 6.004,-2.329 5.568,-3.84 4.697,-4.985 3.826,-6.133 2.742,-6.964 1.447,-7.479 l 5.33,-9.901 c 0.07,-0.141 0.105,-0.268 0.105,-0.386" /></g><g
           transform="translate(193.7237,116.876)"
           id="g84"><path
             id="path86"
             style="fill:#1d1d1b;fill-opacity:1;fill-rule:nonzero;stroke:none"
             d="M 0,0 C -0.047,0.187 -0.094,0.322 -0.14,0.404 -0.187,0.485 -0.293,0.527 -0.456,0.527 -0.714,0.527 -0.877,0.352 -0.948,0 L -3.09,-9.69 h 5.232 z m 10.604,-20.329 c 0,-0.374 -0.199,-0.562 -0.597,-0.562 H 5.091 c -0.187,0 -0.339,0.059 -0.456,0.176 -0.118,0.116 -0.199,0.269 -0.246,0.456 L 3.125,-14.5 h -7.198 l -1.263,-5.759 c -0.048,-0.187 -0.13,-0.34 -0.247,-0.456 -0.117,-0.117 -0.269,-0.176 -0.456,-0.176 h -4.916 c -0.398,0 -0.596,0.188 -0.596,0.562 0,0.023 0.005,0.047 0.017,0.07 0.012,0.024 0.018,0.059 0.018,0.106 l 5.231,21.768 c 0.211,0.843 0.515,1.522 0.913,2.037 0.398,0.514 0.861,0.907 1.387,1.177 0.527,0.268 1.094,0.45 1.703,0.543 0.608,0.094 1.217,0.141 1.826,0.141 0.608,0 1.211,-0.047 1.808,-0.141 C 1.949,5.279 2.511,5.097 3.038,4.829 3.564,4.559 4.026,4.166 4.424,3.652 4.822,3.137 5.126,2.458 5.337,1.615 l 5.232,-21.768 c 0,-0.047 0.005,-0.082 0.017,-0.106 0.012,-0.023 0.018,-0.047 0.018,-0.07" /></g><g
           transform="translate(219.9864,111.294)"
           id="g88"><path
             id="path90"
             style="fill:#1d1d1b;fill-opacity:1;fill-rule:nonzero;stroke:none"
             d="m 0,0 c 0,1.193 -0.123,2.177 -0.369,2.949 -0.245,0.773 -0.597,1.387 -1.053,1.844 -0.456,0.456 -1.001,0.772 -1.633,0.947 -0.632,0.176 -1.346,0.264 -2.141,0.264 -0.446,0 -0.908,-0.006 -1.387,-0.018 -0.48,-0.011 -0.849,-0.03 -1.106,-0.052 v -16.397 c 0.257,-0.024 0.626,-0.041 1.106,-0.053 0.479,-0.011 0.941,-0.017 1.387,-0.017 0.795,0 1.509,0.088 2.141,0.263 0.632,0.175 1.177,0.492 1.633,0.948 0.456,0.457 0.808,1.071 1.053,1.843 C -0.123,-6.706 0,-5.724 0,-4.529 Z m 6.004,-4.529 c 0,-1.85 -0.258,-3.471 -0.773,-4.864 -0.515,-1.392 -1.252,-2.55 -2.211,-3.475 -0.96,-0.926 -2.131,-1.615 -3.512,-2.071 -1.381,-0.457 -2.949,-0.686 -4.704,-0.686 -0.726,0 -1.458,0.019 -2.195,0.053 -0.737,0.035 -1.44,0.077 -2.107,0.123 -0.667,0.047 -1.276,0.1 -1.825,0.158 -0.551,0.059 -1.001,0.123 -1.352,0.193 -0.328,0.046 -0.579,0.163 -0.755,0.351 -0.175,0.187 -0.263,0.479 -0.263,0.878 V 9.339 c 0,0.398 0.088,0.69 0.263,0.879 0.176,0.186 0.427,0.303 0.755,0.35 0.351,0.071 0.801,0.135 1.352,0.194 0.549,0.057 1.158,0.11 1.825,0.158 0.667,0.046 1.37,0.087 2.107,0.123 0.737,0.035 1.469,0.052 2.195,0.052 1.755,0 3.323,-0.229 4.704,-0.684 C 0.889,9.954 2.06,9.263 3.02,8.339 3.979,7.413 4.716,6.255 5.231,4.863 5.746,3.47 6.004,1.849 6.004,0 Z" /></g><g
           transform="translate(248.4264,100.8135)"
           id="g92"><path
             id="path94"
             style="fill:#1d1d1b;fill-opacity:1;fill-rule:nonzero;stroke:none"
             d="m 0,0 c -0.539,-1.3 -1.264,-2.33 -2.177,-3.09 -0.913,-0.761 -1.984,-1.294 -3.213,-1.597 -1.229,-0.304 -2.546,-0.458 -3.95,-0.458 -1.405,0 -2.721,0.154 -3.95,0.458 -1.229,0.303 -2.299,0.836 -3.212,1.597 -0.914,0.76 -1.633,1.79 -2.16,3.09 -0.526,1.299 -0.79,2.955 -0.79,4.968 v 15.625 c 0,0.186 0.071,0.344 0.211,0.473 0.14,0.129 0.304,0.194 0.491,0.194 h 4.6 c 0.187,0 0.351,-0.065 0.491,-0.194 0.141,-0.129 0.211,-0.287 0.211,-0.473 V 4.968 c 0,-0.89 0.064,-1.656 0.193,-2.3 0.129,-0.644 0.351,-1.171 0.667,-1.58 0.316,-0.409 0.738,-0.714 1.264,-0.913 0.527,-0.198 1.188,-0.298 1.984,-0.298 0.796,0 1.457,0.1 1.984,0.298 0.526,0.199 0.948,0.504 1.264,0.913 0.316,0.409 0.544,0.936 0.684,1.58 0.141,0.644 0.211,1.41 0.211,2.3 v 15.625 c 0,0.186 0.071,0.344 0.211,0.473 0.14,0.129 0.304,0.194 0.491,0.194 H 0.07 c 0.187,0 0.356,-0.065 0.509,-0.194 0.152,-0.129 0.228,-0.287 0.228,-0.473 V 4.968 C 0.807,2.955 0.538,1.299 0,0" /></g><g
           transform="translate(261.9444,116.876)"
           id="g96"><path
             id="path98"
             style="fill:#1d1d1b;fill-opacity:1;fill-rule:nonzero;stroke:none"
             d="M 0,0 C -0.047,0.187 -0.094,0.322 -0.14,0.404 -0.187,0.485 -0.293,0.527 -0.456,0.527 -0.714,0.527 -0.878,0.352 -0.948,0 L -3.09,-9.69 h 5.232 z m 10.604,-20.329 c 0,-0.374 -0.199,-0.562 -0.597,-0.562 H 5.091 c -0.187,0 -0.339,0.059 -0.456,0.176 -0.118,0.116 -0.199,0.269 -0.246,0.456 L 3.125,-14.5 h -7.198 l -1.264,-5.759 c -0.047,-0.187 -0.129,-0.34 -0.246,-0.456 -0.117,-0.117 -0.269,-0.176 -0.456,-0.176 h -4.916 c -0.398,0 -0.596,0.188 -0.596,0.562 0,0.023 0.005,0.047 0.017,0.07 0.012,0.024 0.018,0.059 0.018,0.106 l 5.231,21.768 c 0.211,0.843 0.515,1.522 0.913,2.037 0.398,0.514 0.861,0.907 1.387,1.177 0.527,0.268 1.094,0.45 1.703,0.543 0.608,0.094 1.217,0.141 1.826,0.141 0.608,0 1.211,-0.047 1.808,-0.141 C 1.949,5.279 2.511,5.097 3.038,4.829 3.564,4.559 4.026,4.166 4.424,3.652 4.822,3.137 5.126,2.458 5.337,1.615 l 5.232,-21.768 c 0,-0.047 0.005,-0.082 0.017,-0.106 0.012,-0.023 0.018,-0.047 0.018,-0.07" /></g><g
           transform="translate(286.4518,94.5108)"
           id="g100"><path
             id="path102"
             style="fill:#1d1d1b;fill-opacity:1;fill-rule:nonzero;stroke:none"
             d="M 0,0 C 0,-0.093 -0.046,-0.187 -0.14,-0.281 L -4.459,-4.564 C -4.6,-4.705 -4.717,-4.811 -4.81,-4.88 -4.904,-4.95 -5.068,-4.985 -5.302,-4.985 h -3.757 c -0.21,0 -0.316,0.082 -0.316,0.245 0,0.118 0.047,0.234 0.141,0.351 l 3.265,4.108 c 0.164,0.188 0.299,0.322 0.404,0.404 0.106,0.082 0.286,0.123 0.544,0.123 h 4.635 C -0.128,0.246 0,0.164 0,0 M 3.16,2.563 C 3.16,2.306 3.095,2.125 2.967,2.019 2.838,1.913 2.645,1.826 2.388,1.755 2.013,1.639 1.358,1.51 0.422,1.369 -0.515,1.229 -1.603,1.158 -2.844,1.158 c -1.334,0 -2.628,0.188 -3.88,0.562 -1.252,0.375 -2.358,1.001 -3.318,1.879 -0.959,0.878 -1.732,2.03 -2.317,3.459 -0.585,1.427 -0.877,3.183 -0.877,5.266 v 4.424 c 0,2.083 0.292,3.838 0.877,5.267 0.585,1.427 1.358,2.575 2.317,3.44 0.96,0.866 2.066,1.486 3.318,1.861 1.252,0.374 2.546,0.562 3.88,0.562 1.241,0 2.329,-0.07 3.266,-0.212 0.936,-0.142 1.591,-0.271 1.966,-0.389 0.257,-0.071 0.45,-0.153 0.579,-0.248 C 3.095,26.936 3.16,26.758 3.16,26.5 v -3.43 c 0,-0.469 -0.223,-0.705 -0.667,-0.705 H 2.388 c -0.68,0.047 -1.469,0.106 -2.37,0.177 -0.901,0.069 -1.844,0.104 -2.827,0.104 -0.608,0 -1.176,-0.087 -1.702,-0.262 -0.527,-0.176 -0.989,-0.491 -1.387,-0.947 -0.399,-0.455 -0.708,-1.062 -0.931,-1.822 -0.222,-0.759 -0.334,-1.721 -0.334,-2.889 v -4.414 c 0,-1.168 0.112,-2.132 0.334,-2.891 0.223,-0.76 0.532,-1.367 0.931,-1.822 0.398,-0.455 0.86,-0.771 1.387,-0.946 0.526,-0.175 1.094,-0.262 1.702,-0.262 0.983,0 1.926,0.035 2.827,0.104 0.901,0.07 1.69,0.129 2.37,0.176 h 0.105 c 0.444,0 0.667,-0.234 0.667,-0.702 z" /></g><g
           transform="translate(302.1104,116.876)"
           id="g104"><path
             id="path106"
             style="fill:#1d1d1b;fill-opacity:1;fill-rule:nonzero;stroke:none"
             d="M 0,0 C -0.047,0.187 -0.094,0.322 -0.14,0.404 -0.187,0.485 -0.292,0.527 -0.456,0.527 -0.714,0.527 -0.877,0.352 -0.947,0 L -3.089,-9.69 H 2.143 Z M 6.566,10.955 C 6.566,9.41 6.186,8.322 5.426,7.69 4.664,7.059 3.617,6.742 2.282,6.742 1.932,6.742 1.522,6.806 1.054,6.935 0.585,7.063 0.164,7.256 -0.21,7.514 L -1.685,8.532 C -2.294,8.954 -2.773,9.164 -3.124,9.164 -3.358,9.164 -3.552,9.1 -3.704,8.972 -3.856,8.843 -3.932,8.591 -3.932,8.216 V 7.549 c 0,-0.399 -0.175,-0.597 -0.527,-0.597 h -2.493 c -0.351,0 -0.526,0.198 -0.526,0.597 v 0.667 c 0,1.522 0.386,2.599 1.159,3.231 0.772,0.632 1.825,0.948 3.159,0.948 0.351,0 0.756,-0.059 1.212,-0.175 0.457,-0.118 0.872,-0.305 1.246,-0.563 l 1.511,-0.983 c 0.303,-0.187 0.567,-0.339 0.79,-0.456 0.221,-0.117 0.425,-0.176 0.614,-0.176 0.257,0 0.456,0.064 0.597,0.193 0.14,0.129 0.21,0.38 0.21,0.755 v 0.667 c 0,0.374 0.187,0.563 0.562,0.563 h 2.457 c 0.352,0 0.527,-0.189 0.527,-0.563 z m 4.038,-31.284 c 0,-0.374 -0.199,-0.562 -0.597,-0.562 H 5.092 c -0.188,0 -0.34,0.059 -0.456,0.176 -0.118,0.116 -0.2,0.269 -0.247,0.456 L 3.125,-14.5 h -7.197 l -1.264,-5.759 c -0.048,-0.187 -0.129,-0.34 -0.246,-0.456 -0.117,-0.117 -0.27,-0.176 -0.456,-0.176 h -4.916 c -0.399,0 -0.597,0.188 -0.597,0.562 0,0.023 0.005,0.047 0.018,0.07 0.011,0.024 0.017,0.059 0.017,0.106 l 5.232,21.768 c 0.211,0.843 0.514,1.522 0.913,2.037 0.397,0.514 0.86,0.907 1.387,1.177 0.526,0.268 1.093,0.45 1.703,0.543 0.608,0.094 1.216,0.141 1.825,0.141 0.608,0 1.211,-0.047 1.809,-0.141 C 1.949,5.279 2.511,5.097 3.038,4.829 3.564,4.559 4.026,4.166 4.425,3.652 4.822,3.137 5.127,2.458 5.338,1.615 l 5.23,-21.768 c 0,-0.047 0.006,-0.082 0.019,-0.106 0.012,-0.023 0.017,-0.047 0.017,-0.07" /></g><g
           transform="translate(328.1974,111.128)"
           id="g108"><path
             id="path110"
             style="fill:#1d1d1b;fill-opacity:1;fill-rule:nonzero;stroke:none"
             d="m 0,0 c 0,2.139 -0.356,3.679 -1.07,4.619 -0.714,0.94 -1.809,1.41 -3.283,1.41 -1.475,0 -2.564,-0.47 -3.266,-1.41 C -8.321,3.679 -8.672,2.139 -8.672,0 v -4.197 c 0,-2.14 0.351,-3.68 1.053,-4.619 0.702,-0.941 1.791,-1.411 3.266,-1.411 1.474,0 2.569,0.47 3.283,1.411 0.714,0.939 1.07,2.479 1.07,4.619 z m 6.005,-4.188 c 0,-2.037 -0.27,-3.769 -0.807,-5.197 -0.538,-1.428 -1.273,-2.592 -2.208,-3.493 -0.935,-0.901 -2.033,-1.557 -3.296,-1.966 -1.261,-0.409 -2.616,-0.615 -4.065,-0.615 -1.448,0 -2.805,0.206 -4.066,0.615 -1.261,0.409 -2.361,1.065 -3.294,1.966 -0.936,0.901 -1.671,2.065 -2.209,3.493 -0.538,1.428 -0.806,3.16 -0.806,5.197 v 4.178 c 0,2.036 0.268,3.769 0.806,5.197 0.538,1.427 1.273,2.592 2.209,3.493 0.933,0.901 2.033,1.557 3.294,1.966 1.261,0.41 2.618,0.615 4.066,0.615 1.449,0 2.804,-0.205 4.065,-0.615 C 0.957,10.237 2.055,9.581 2.99,8.68 3.925,7.779 4.66,6.614 5.198,5.187 5.735,3.759 6.005,2.026 6.005,-0.01 Z" /></g></g></g><g
       id="g112"><g
         clip-path="url(#clipPath118)"
         id="g114"><g
           transform="translate(360.6407,96.126)"
           id="g120"><path
             id="path122"
             style="fill:#1d1d1b;fill-opacity:1;fill-rule:nonzero;stroke:none"
             d="m 0,0 c -0.609,-0.094 -1.422,-0.193 -2.44,-0.299 -1.019,-0.105 -2.476,-0.158 -4.372,-0.158 -1.123,0 -2.203,0.095 -3.237,0.281 -1.034,0.188 -1.945,0.55 -2.734,1.089 -0.789,0.538 -1.419,1.305 -1.89,2.3 -0.471,0.994 -0.706,2.288 -0.706,3.88 v 11.656 c 0,1.592 0.235,2.88 0.706,3.862 0.471,0.984 1.101,1.744 1.89,2.283 0.789,0.538 1.706,0.901 2.752,1.088 1.046,0.187 2.131,0.281 3.254,0.281 0.936,0 1.761,-0.017 2.475,-0.052 0.714,-0.036 1.34,-0.077 1.879,-0.123 0.538,-0.048 1.001,-0.095 1.387,-0.141 0.387,-0.048 0.731,-0.094 1.036,-0.14 0.468,-0.071 0.701,-0.305 0.701,-0.703 v -3.265 c 0,-0.188 -0.069,-0.352 -0.21,-0.491 C 0.351,21.207 0.187,21.137 0,21.137 h -7.128 c -0.819,0 -1.398,-0.17 -1.737,-0.509 -0.34,-0.34 -0.51,-0.966 -0.51,-1.879 v -3.195 h 9.094 c 0.187,0 0.35,-0.07 0.492,-0.21 0.14,-0.142 0.21,-0.305 0.21,-0.492 v -3.335 c 0,-0.188 -0.07,-0.352 -0.21,-0.492 -0.142,-0.14 -0.305,-0.212 -0.492,-0.212 h -9.094 v -3.72 c 0,-0.913 0.17,-1.54 0.51,-1.879 0.339,-0.34 0.918,-0.509 1.737,-0.509 H 0 c 0.187,0 0.351,-0.07 0.491,-0.211 0.141,-0.14 0.21,-0.305 0.21,-0.491 V 0.737 C 0.701,0.316 0.468,0.07 0,0" /></g></g></g><g
       id="g124"><g
         clip-path="url(#clipPath130)"
         id="g126"><g
           transform="translate(385.8136,113.9278)"
           id="g132"><path
             id="path134"
             style="fill:#1d1d1b;fill-opacity:1;fill-rule:nonzero;stroke:none"
             d="m 0,0 c 0,1.264 -0.38,2.159 -1.141,2.686 -0.761,0.526 -1.879,0.79 -3.353,0.79 -0.117,0 -0.317,-0.007 -0.597,-0.018 C -5.371,3.445 -5.659,3.434 -5.951,3.423 -6.244,3.41 -6.524,3.398 -6.793,3.388 -7.063,3.376 -7.244,3.37 -7.338,3.37 v -7.162 c 0.094,0 0.275,-0.007 0.545,-0.019 0.269,-0.011 0.562,-0.023 0.877,-0.034 0.316,-0.012 0.608,-0.018 0.878,-0.018 h 0.544 c 1.568,0 2.709,0.293 3.424,0.878 C -0.356,-2.4 0,-1.511 0,-0.316 Z M 6.005,-0.316 C 6.005,-1.955 5.704,-3.318 5.106,-4.407 4.508,-5.496 3.716,-6.368 2.73,-7.023 1.744,-7.679 0.624,-8.141 -0.632,-8.409 c -1.255,-0.27 -2.54,-0.404 -3.854,-0.404 -0.422,0 -0.892,0.011 -1.409,0.035 -0.516,0.022 -0.998,0.046 -1.443,0.07 v -8.532 c 0,-0.188 -0.07,-0.351 -0.211,-0.491 -0.139,-0.141 -0.305,-0.211 -0.491,-0.211 h -4.529 c -0.188,0 -0.352,0.064 -0.493,0.193 -0.139,0.129 -0.209,0.286 -0.209,0.474 V 6.319 c 0,0.609 0.128,1.018 0.386,1.23 0.258,0.21 0.656,0.362 1.197,0.456 0.89,0.141 1.987,0.251 3.288,0.333 1.301,0.082 2.586,0.123 3.852,0.123 1.336,0 2.638,-0.129 3.904,-0.387 C 0.622,7.817 1.747,7.36 2.733,6.705 3.718,6.05 4.509,5.178 5.107,4.09 5.705,3.002 6.005,1.638 6.005,0 Z" /></g><g
           transform="translate(409.8292,128.8838)"
           id="g136"><path
             id="path138"
             style="fill:#1d1d1b;fill-opacity:1;fill-rule:nonzero;stroke:none"
             d="M 0,0 C 0,-0.093 -0.047,-0.187 -0.14,-0.28 L -4.424,-4.563 C -4.563,-4.704 -4.682,-4.81 -4.775,-4.88 -4.868,-4.949 -5.033,-4.984 -5.267,-4.984 h -3.756 c -0.211,0 -0.316,0.081 -0.316,0.245 0,0.117 0.046,0.233 0.14,0.35 l 3.265,4.109 c 0.163,0.187 0.298,0.322 0.404,0.403 0.106,0.082 0.287,0.123 0.545,0.123 h 4.599 C -0.129,0.246 0,0.164 0,0 m -1.439,-17.756 c 0,2.139 -0.358,3.679 -1.072,4.619 -0.714,0.94 -1.807,1.41 -3.282,1.41 -1.475,0 -2.563,-0.47 -3.266,-1.41 -0.702,-0.94 -1.052,-2.48 -1.052,-4.619 v -4.197 c 0,-2.14 0.35,-3.68 1.052,-4.619 0.703,-0.941 1.791,-1.41 3.266,-1.41 1.475,0 2.568,0.469 3.282,1.41 0.714,0.939 1.072,2.479 1.072,4.619 z m 6.003,-4.188 c 0,-2.036 -0.268,-3.769 -0.806,-5.197 -0.537,-1.427 -1.274,-2.591 -2.208,-3.493 -0.935,-0.901 -2.032,-1.556 -3.295,-1.966 -1.262,-0.409 -2.617,-0.615 -4.066,-0.615 -1.449,0 -2.804,0.206 -4.066,0.615 -1.262,0.41 -2.36,1.065 -3.295,1.966 -0.934,0.902 -1.671,2.066 -2.208,3.493 -0.538,1.428 -0.806,3.161 -0.806,5.197 v 4.178 c 0,2.037 0.268,3.769 0.806,5.197 0.537,1.427 1.274,2.592 2.208,3.493 0.935,0.901 2.033,1.557 3.295,1.967 1.262,0.409 2.617,0.614 4.066,0.614 1.449,0 2.804,-0.205 4.066,-0.614 1.263,-0.41 2.36,-1.066 3.295,-1.967 0.934,-0.901 1.671,-2.066 2.208,-3.493 0.538,-1.428 0.806,-3.16 0.806,-5.197 z" /></g><g
           transform="translate(434.3018,103.3594)"
           id="g140"><path
             id="path142"
             style="fill:#1d1d1b;fill-opacity:1;fill-rule:nonzero;stroke:none"
             d="M 0,0 C 0,-0.937 -0.164,-1.861 -0.492,-2.774 -0.82,-3.688 -1.364,-4.507 -2.124,-5.232 -2.886,-5.958 -3.875,-6.549 -5.092,-7.005 -6.309,-7.462 -7.807,-7.69 -9.586,-7.69 c -1.404,0 -2.64,0.071 -3.704,0.211 -1.065,0.14 -2.042,0.328 -2.932,0.562 -0.187,0.047 -0.351,0.128 -0.491,0.245 -0.141,0.117 -0.211,0.269 -0.211,0.457 v 3.441 c 0,0.257 0.058,0.432 0.176,0.526 0.117,0.094 0.269,0.141 0.456,0.141 h 0.105 c 0.351,-0.047 0.836,-0.094 1.458,-0.141 0.62,-0.047 1.257,-0.087 1.913,-0.123 0.656,-0.035 1.282,-0.07 1.878,-0.106 0.598,-0.034 1.072,-0.051 1.422,-0.051 1.217,0 2.042,0.198 2.476,0.596 0.433,0.398 0.649,1.018 0.649,1.862 0,0.513 -0.157,0.953 -0.473,1.316 -0.317,0.362 -0.931,0.814 -1.844,1.352 l -4.845,2.879 c -0.82,0.491 -1.493,0.995 -2.019,1.509 -0.527,0.515 -0.948,1.054 -1.264,1.616 -0.315,0.561 -0.539,1.141 -0.667,1.738 -0.129,0.597 -0.193,1.211 -0.193,1.843 0,0.959 0.146,1.854 0.439,2.686 0.292,0.83 0.789,1.556 1.491,2.176 0.703,0.621 1.627,1.107 2.775,1.458 1.146,0.351 2.574,0.526 4.283,0.526 0.633,0 1.316,-0.023 2.054,-0.07 0.738,-0.047 1.445,-0.105 2.124,-0.175 0.678,-0.07 1.311,-0.153 1.896,-0.246 0.585,-0.094 1.042,-0.187 1.37,-0.281 0.14,-0.047 0.263,-0.117 0.368,-0.21 0.106,-0.095 0.158,-0.235 0.158,-0.422 v -3.546 c 0,-0.164 -0.04,-0.305 -0.122,-0.421 -0.083,-0.118 -0.242,-0.177 -0.475,-0.177 h -0.07 c -0.258,0.024 -0.672,0.054 -1.246,0.089 -0.575,0.034 -1.224,0.076 -1.95,0.123 -0.724,0.046 -1.468,0.087 -2.229,0.122 -0.76,0.036 -1.434,0.053 -2.019,0.053 -1.005,0 -1.714,-0.152 -2.124,-0.456 -0.409,-0.305 -0.614,-0.772 -0.614,-1.404 0,-0.259 0.035,-0.481 0.106,-0.667 0.069,-0.189 0.192,-0.369 0.368,-0.545 0.175,-0.176 0.415,-0.363 0.719,-0.562 0.305,-0.199 0.691,-0.427 1.16,-0.684 L -4.74,7.127 C -2.914,6.145 -1.669,5.067 -1.001,3.896 -0.334,2.727 0,1.427 0,0" /></g></g></g></g></svg>